<svg width="291" height="291" viewBox="0 0 291 291" fill="none" xmlns="http://www.w3.org/2000/svg">
<path d="M230.375 230.375H60.625V97H230.375M194 12.125V36.375H97V12.125H72.75V36.375H60.625C47.1663 36.375 36.375 47.1662 36.375 60.625V230.375C36.375 236.807 38.9299 242.975 43.4777 247.522C48.0254 252.07 54.1935 254.625 60.625 254.625H230.375C236.807 254.625 242.975 252.07 247.522 247.522C252.07 242.975 254.625 236.807 254.625 230.375V60.625C254.625 54.1935 252.07 48.0254 247.522 43.4777C242.975 38.9299 236.807 36.375 230.375 36.375H218.25V12.125M206.125 145.5H145.5V206.125H206.125V145.5Z" fill="black"/>
</svg>
