<svg width="137" height="137" viewBox="0 0 137 137" fill="none" xmlns="http://www.w3.org/2000/svg">
<path d="M108.458 108.458H28.5417V45.6666H108.458M91.3333 5.70831V17.125H45.6667V5.70831H34.25V17.125H28.5417C22.2054 17.125 17.125 22.2054 17.125 28.5416V108.458C17.125 111.486 18.3278 114.39 20.4689 116.531C22.6099 118.672 25.5138 119.875 28.5417 119.875H108.458C111.486 119.875 114.39 118.672 116.531 116.531C118.672 114.39 119.875 111.486 119.875 108.458V28.5416C119.875 25.5138 118.672 22.6099 116.531 20.4688C114.39 18.3278 111.486 17.125 108.458 17.125H102.75V5.70831M97.0417 68.5H68.5V97.0416H97.0417V68.5Z" fill="black"/>
</svg>
