<svg width="291" height="291" viewBox="0 0 291 291" fill="none" xmlns="http://www.w3.org/2000/svg">
<path d="M72.75 218.25L44.8625 246.137C41.0229 249.977 36.6256 250.838 31.6705 248.72C26.7154 246.602 24.2419 242.811 24.25 237.347V48.5C24.25 41.8312 26.6265 36.1244 31.3795 31.3795C36.1325 26.6346 41.8394 24.2581 48.5 24.25H242.5C249.169 24.25 254.88 26.6265 259.633 31.3795C264.386 36.1325 266.758 41.8393 266.75 48.5V194C266.75 200.669 264.378 206.38 259.633 211.133C254.888 215.886 249.177 218.258 242.5 218.25H72.75ZM84.875 169.75H157.625C161.06 169.75 163.942 168.586 166.27 166.258C168.598 163.93 169.758 161.052 169.75 157.625C169.742 154.198 168.578 151.32 166.258 148.992C163.938 146.664 161.06 145.5 157.625 145.5H84.875C81.4396 145.5 78.5619 146.664 76.242 148.992C73.9221 151.32 72.7581 154.198 72.75 157.625C72.7419 161.052 73.9059 163.934 76.242 166.27C78.5781 168.606 81.4558 169.766 84.875 169.75ZM84.875 133.375H206.125C209.56 133.375 212.442 132.211 214.77 129.883C217.098 127.555 218.258 124.677 218.25 121.25C218.242 117.823 217.078 114.945 214.758 112.617C212.438 110.289 209.56 109.125 206.125 109.125H84.875C81.4396 109.125 78.5619 110.289 76.242 112.617C73.9221 114.945 72.7581 117.823 72.75 121.25C72.7419 124.677 73.9059 127.559 76.242 129.895C78.5781 132.231 81.4558 133.391 84.875 133.375ZM84.875 97H206.125C209.56 97 212.442 95.836 214.77 93.508C217.098 91.18 218.258 88.3023 218.25 84.875C218.242 81.4477 217.078 78.57 214.758 76.242C212.438 73.914 209.56 72.75 206.125 72.75H84.875C81.4396 72.75 78.5619 73.914 76.242 76.242C73.9221 78.57 72.7581 81.4477 72.75 84.875C72.7419 88.3023 73.9059 91.184 76.242 93.5201C78.5781 95.8562 81.4558 97.0162 84.875 97Z" fill="black"/>
</svg>
