<svg width="137" height="137" viewBox="0 0 137 137" fill="none" xmlns="http://www.w3.org/2000/svg">
<path d="M34.25 102.75L21.1208 115.879C19.3132 117.687 17.2429 118.092 14.9101 117.095C12.5773 116.098 11.4128 114.313 11.4166 111.741V22.8334C11.4166 19.6938 12.5355 17.007 14.7731 14.7732C17.0108 12.5393 19.6975 11.4205 22.8333 11.4167H114.167C117.306 11.4167 119.995 12.5355 122.233 14.7732C124.47 17.0109 125.587 19.6976 125.583 22.8334V91.3334C125.583 94.4729 124.466 97.1616 122.233 99.3992C119.999 101.637 117.31 102.754 114.167 102.75H34.25ZM39.9583 79.9167H74.2083C75.8257 79.9167 77.1824 79.3687 78.2784 78.2727C79.3744 77.1767 79.9204 75.8219 79.9166 74.2084C79.9128 72.5948 79.3648 71.24 78.2726 70.144C77.1804 69.048 75.8257 68.5 74.2083 68.5H39.9583C38.3409 68.5 36.9862 69.048 35.894 70.144C34.8018 71.24 34.2538 72.5948 34.25 74.2084C34.2462 75.8219 34.7942 77.1786 35.894 78.2784C36.9938 79.3782 38.3486 79.9243 39.9583 79.9167ZM39.9583 62.7917H97.0416C98.659 62.7917 100.016 62.2437 101.112 61.1477C102.208 60.0517 102.754 58.6969 102.75 57.0834C102.746 55.4698 102.198 54.115 101.106 53.019C100.014 51.923 98.659 51.375 97.0416 51.375H39.9583C38.3409 51.375 36.9862 51.923 35.894 53.019C34.8018 54.115 34.2538 55.4698 34.25 57.0834C34.2462 58.6969 34.7942 60.0536 35.894 61.1534C36.9938 62.2532 38.3486 62.7993 39.9583 62.7917ZM39.9583 45.6667H97.0416C98.659 45.6667 100.016 45.1187 101.112 44.0227C102.208 42.9267 102.754 41.5719 102.75 39.9584C102.746 38.3448 102.198 36.99 101.106 35.894C100.014 34.798 98.659 34.25 97.0416 34.25H39.9583C38.3409 34.25 36.9862 34.798 35.894 35.894C34.8018 36.99 34.2538 38.3448 34.25 39.9584C34.2462 41.5719 34.7942 42.9286 35.894 44.0284C36.9938 45.1282 38.3486 45.6743 39.9583 45.6667Z" fill="black"/>
</svg>
