<svg width="291" height="291" viewBox="0 0 291 291" fill="none" xmlns="http://www.w3.org/2000/svg">
<path d="M145.5 266.75C128.727 266.75 112.965 263.565 98.2125 257.195C83.4604 250.826 70.6281 242.189 59.7156 231.284C48.8031 220.38 40.1661 207.548 33.8045 192.787C27.4429 178.027 24.2581 162.265 24.25 145.5C24.2419 128.735 27.4268 112.973 33.8045 98.2125C40.1823 83.4523 48.8193 70.62 59.7156 59.7156C70.612 48.8112 83.4443 40.1742 98.2125 33.8045C112.981 27.4348 128.743 24.25 145.5 24.25C162.257 24.25 178.019 27.4348 192.788 33.8045C207.556 40.1742 220.388 48.8112 231.284 59.7156C242.181 70.62 250.822 83.4523 257.208 98.2125C263.593 112.973 266.774 128.735 266.75 145.5C266.726 162.265 263.541 178.027 257.196 192.787C250.85 207.548 242.213 220.38 231.284 231.284C220.356 242.189 207.523 250.83 192.788 257.208C178.052 263.585 162.289 266.766 145.5 266.75ZM145.5 242.5C172.579 242.5 195.516 233.103 214.309 214.309C233.103 195.516 242.5 172.579 242.5 145.5C242.5 144.085 242.452 142.618 242.355 141.099C242.258 139.579 242.205 138.318 242.197 137.316C241.186 143.176 238.458 148.026 234.013 151.866C229.567 155.705 224.313 157.625 218.25 157.625H194C187.331 157.625 181.624 155.253 176.88 150.508C172.135 145.763 169.758 140.052 169.75 133.375V121.25H121.25V97C121.25 90.3313 123.627 84.6244 128.38 79.8795C133.133 75.1346 138.839 72.7581 145.5 72.75H157.625C157.625 68.1021 158.89 64.0119 161.42 60.4795C163.95 56.9471 167.03 54.0654 170.659 51.8344C166.618 50.824 162.528 50.0156 158.389 49.4094C154.25 48.8031 149.954 48.5 145.5 48.5C118.421 48.5 95.4844 57.8969 76.6906 76.6906C57.8969 95.4844 48.5 118.421 48.5 145.5H109.125C122.463 145.5 133.88 150.249 143.378 159.747C152.876 169.245 157.625 180.663 157.625 194V206.125H121.25V239.469C125.292 240.479 129.285 241.239 133.23 241.748C137.174 242.257 141.264 242.508 145.5 242.5Z" fill="black"/>
</svg>
