<svg width="137" height="137" viewBox="0 0 137 137" fill="none" xmlns="http://www.w3.org/2000/svg">
<path d="M68.5 125.583C60.6035 125.583 53.1827 124.084 46.2375 121.085C39.2924 118.086 33.2511 114.02 28.1136 108.886C22.9761 103.753 18.9098 97.7114 15.9149 90.7625C12.9199 83.8136 11.4205 76.3927 11.4167 68.5C11.4129 60.6073 12.9123 53.1865 15.9149 46.2375C18.9174 39.2886 22.9837 33.2472 28.1136 28.1135C33.2435 22.9799 39.2848 18.9136 46.2375 15.9148C53.1903 12.9161 60.6111 11.4167 68.5 11.4167C76.3889 11.4167 83.8098 12.9161 90.7625 15.9148C97.7153 18.9136 103.757 22.9799 108.886 28.1135C114.016 33.2472 118.085 39.2886 121.091 46.2375C124.097 53.1865 125.595 60.6073 125.583 68.5C125.572 76.3927 124.073 83.8136 121.085 90.7625C118.098 97.7114 114.032 103.753 108.886 108.886C103.741 114.02 97.7001 118.088 90.7625 121.091C83.825 124.093 76.4042 125.591 68.5 125.583ZM68.5 114.167C81.2486 114.167 92.0469 109.743 100.895 100.895C109.743 92.0469 114.167 81.2486 114.167 68.5C114.167 67.834 114.144 67.1433 114.098 66.4279C114.053 65.7124 114.028 65.1188 114.024 64.6469C113.548 67.4059 112.264 69.6892 110.171 71.4969C108.078 73.3045 105.604 74.2083 102.75 74.2083H91.3334C88.1938 74.2083 85.5071 73.0914 83.2732 70.8575C81.0393 68.6237 79.9205 65.9351 79.9167 62.7917V57.0833H57.0834V45.6667C57.0834 42.5271 58.2022 39.8404 60.4399 37.6065C62.6775 35.3726 65.3643 34.2538 68.5 34.25H74.2084C74.2084 32.0618 74.8039 30.1362 75.9951 28.4732C77.1862 26.8101 78.6361 25.4535 80.3448 24.4031C78.442 23.9274 76.5164 23.5469 74.568 23.2615C72.6195 22.976 70.5969 22.8333 68.5 22.8333C55.7514 22.8333 44.9532 27.2573 36.1052 36.1052C27.2573 44.9531 22.8334 55.7514 22.8334 68.5H51.375C57.6542 68.5 63.0295 70.7358 67.5011 75.2073C71.9726 79.6788 74.2084 85.0542 74.2084 91.3333V97.0417H57.0834V112.74C58.9861 113.215 60.8661 113.573 62.7232 113.813C64.5803 114.053 66.5059 114.17 68.5 114.167Z" fill="black"/>
</svg>
