<svg width="291" height="291" viewBox="0 0 291 291" fill="none" xmlns="http://www.w3.org/2000/svg">
<path d="M145.5 139.438C137.461 139.438 129.751 136.244 124.066 130.559C118.381 124.874 115.188 117.164 115.188 109.125C115.188 101.086 118.381 93.3755 124.066 87.6908C129.751 82.0061 137.461 78.8125 145.5 78.8125C153.539 78.8125 161.249 82.0061 166.934 87.6908C172.619 93.3755 175.812 101.086 175.812 109.125C175.812 113.106 175.028 117.047 173.505 120.725C171.982 124.403 169.749 127.744 166.934 130.559C164.119 133.374 160.778 135.607 157.1 137.13C153.422 138.653 149.481 139.438 145.5 139.438ZM145.5 24.25C122.99 24.25 101.401 33.1922 85.4843 49.1093C69.5672 65.0265 60.625 86.6147 60.625 109.125C60.625 172.781 145.5 266.75 145.5 266.75C145.5 266.75 230.375 172.781 230.375 109.125C230.375 86.6147 221.433 65.0265 205.516 49.1093C189.599 33.1922 168.01 24.25 145.5 24.25Z" fill="black"/>
</svg>
