<svg width="137" height="137" viewBox="0 0 137 137" fill="none" xmlns="http://www.w3.org/2000/svg">
<path d="M68.5 65.6458C64.7152 65.6458 61.0853 64.1423 58.409 61.466C55.7327 58.7897 54.2292 55.1598 54.2292 51.375C54.2292 47.5901 55.7327 43.9603 58.409 41.284C61.0853 38.6077 64.7152 37.1042 68.5 37.1042C72.2849 37.1042 75.9147 38.6077 78.591 41.284C81.2673 43.9603 82.7709 47.5901 82.7709 51.375C82.7709 53.2491 82.4017 55.1048 81.6846 56.8362C80.9674 58.5676 79.9162 60.1408 78.591 61.466C77.2659 62.7912 75.6926 63.8423 73.9612 64.5595C72.2298 65.2767 70.3741 65.6458 68.5 65.6458ZM68.5 11.4167C57.9024 11.4167 47.7389 15.6265 40.2452 23.1202C32.7516 30.6138 28.5417 40.7774 28.5417 51.375C28.5417 81.3437 68.5 125.583 68.5 125.583C68.5 125.583 108.458 81.3437 108.458 51.375C108.458 40.7774 104.248 30.6138 96.7548 23.1202C89.2612 15.6265 79.0976 11.4167 68.5 11.4167Z" fill="black"/>
</svg>
