<svg width="291" height="291" viewBox="0 0 291 291" fill="none" xmlns="http://www.w3.org/2000/svg">
<path fill-rule="evenodd" clip-rule="evenodd" d="M172.308 215.534C178.612 212.383 185.526 210.643 192.57 210.435C199.614 210.228 206.619 211.558 213.097 214.334L215.692 215.546L247.92 231.648C250.688 233.03 252.823 235.419 253.888 238.324C254.953 241.229 254.867 244.432 253.647 247.275C252.427 250.119 250.167 252.389 247.328 253.62C244.489 254.851 241.287 254.95 238.378 253.898L237.08 253.34L204.84 237.226C201.816 235.714 198.51 234.851 195.134 234.693C191.758 234.534 188.385 235.083 185.234 236.304L183.148 237.226L167.192 245.216C160.886 248.367 153.969 250.106 146.922 250.311C139.876 250.517 132.87 249.183 126.391 246.404L123.808 245.216L107.84 237.226C104.816 235.714 101.51 234.851 98.1341 234.693C94.7577 234.534 91.3854 235.083 88.2336 236.304L86.1481 237.226L53.9199 253.352C51.1512 254.752 47.9511 255.038 44.9782 254.15C42.0054 253.262 39.486 251.268 37.9387 248.579C36.3913 245.89 35.9338 242.709 36.6601 239.693C37.3865 236.677 39.2415 234.054 41.8434 232.363L43.0801 231.648L75.3084 215.534C81.6117 212.383 88.5261 210.643 95.5703 210.435C102.614 210.228 109.619 211.558 116.097 214.334L118.692 215.546L134.648 223.524C137.673 225.038 140.981 225.901 144.36 226.06C147.738 226.219 151.113 225.669 154.266 224.446L156.34 223.524L172.308 215.534ZM157.625 24.25C160.841 24.25 163.925 25.5275 166.199 27.8013C168.473 30.0752 169.75 33.1593 169.75 36.375V52.38L210.114 59.0973C215.774 60.0441 220.915 62.9676 224.623 67.3478C228.33 71.7281 230.364 77.2812 230.363 83.0199V124.633L255.34 132.951C257.33 133.614 259.16 134.683 260.714 136.091C262.269 137.498 263.515 139.212 264.373 141.126C265.231 143.039 265.683 145.11 265.7 147.207C265.717 149.304 265.298 151.382 264.471 153.309L238.171 214.661L215.692 203.409C208.957 200.041 201.53 198.288 194 198.288C186.47 198.288 179.043 200.041 172.308 203.409L156.34 211.399C152.972 213.083 149.259 213.96 145.494 213.96C141.729 213.96 138.016 213.083 134.648 211.399L118.692 203.409C111.957 200.041 104.53 198.288 97 198.288C89.47 198.288 82.0433 200.041 75.3084 203.409L59.9096 211.121L27.6814 154.727C26.5689 152.78 25.9023 150.611 25.7296 148.375C25.5569 146.139 25.8824 143.893 26.6827 141.798C27.483 139.704 28.7381 137.813 30.3575 136.262C31.977 134.711 33.9204 133.539 36.0476 132.829L60.625 124.633V83.0199C60.6238 77.2812 62.6578 71.7281 66.3654 67.3478C70.0729 62.9676 75.2137 60.0441 80.8738 59.0973L121.25 52.38V36.375C121.25 33.1593 122.527 30.0752 124.801 27.8013C127.075 25.5275 130.159 24.25 133.375 24.25H157.625ZM145.5 72.9198L84.875 83.0199V116.558L137.825 98.9036C142.803 97.2441 148.185 97.2441 153.163 98.9036L206.125 116.558V83.0199L145.5 72.9198Z" fill="black"/>
</svg>
