<svg width="137" height="137" viewBox="0 0 137 137" fill="none" xmlns="http://www.w3.org/2000/svg">
<path fill-rule="evenodd" clip-rule="evenodd" d="M81.1211 101.471C84.0887 99.9877 87.3439 99.1685 90.6602 99.0709C93.9765 98.9733 97.2743 99.5996 100.324 100.906L101.546 101.477L116.718 109.058C118.022 109.708 119.027 110.833 119.528 112.201C120.029 113.568 119.989 115.076 119.415 116.415C118.84 117.754 117.776 118.822 116.44 119.402C115.103 119.981 113.596 120.028 112.226 119.532L111.615 119.27L96.4366 111.684C95.0132 110.972 93.4568 110.566 91.8672 110.491C90.2777 110.416 88.69 110.675 87.2062 111.25L86.2244 111.684L78.7122 115.445C75.7435 116.929 72.487 117.748 69.1697 117.844C65.8523 117.941 62.5537 117.313 59.5037 116.005L58.2878 115.445L50.7699 111.684C49.3466 110.972 47.7902 110.566 46.2006 110.491C44.611 110.416 43.0234 110.675 41.5395 111.25L40.5577 111.684L25.385 119.276C24.0815 119.935 22.5749 120.069 21.1753 119.651C19.7757 119.233 18.5896 118.295 17.8612 117.028C17.1327 115.762 16.9173 114.265 17.2592 112.845C17.6012 111.425 18.4745 110.19 19.6995 109.394L20.2817 109.058L35.4545 101.471C38.422 99.9877 41.6772 99.1685 44.9935 99.0709C48.3099 98.9733 51.6076 99.5996 54.6573 100.906L55.8789 101.477L63.391 105.233C64.8152 105.946 66.3726 106.352 67.9632 106.427C69.5538 106.502 71.1425 106.243 72.6271 105.667L73.6033 105.233L81.1211 101.471ZM74.2083 11.4167C75.7223 11.4167 77.1742 12.0181 78.2447 13.0886C79.3153 14.1591 79.9167 15.611 79.9167 17.125V24.66L98.9197 27.8224C101.584 28.2682 104.005 29.6445 105.75 31.7067C107.496 33.7689 108.453 36.3832 108.453 39.0849V58.676L120.212 62.5919C121.148 62.9043 122.01 63.4077 122.742 64.0702C123.474 64.7327 124.06 65.5398 124.464 66.4407C124.868 67.3415 125.081 68.3164 125.089 69.3036C125.097 70.2909 124.9 71.269 124.51 72.1762L112.129 101.06L101.546 95.763C98.3748 94.1775 94.8784 93.352 91.3333 93.352C87.7883 93.352 84.2919 94.1775 81.1211 95.763L73.6033 99.5248C72.0179 100.318 70.2697 100.73 68.4972 100.73C66.7246 100.73 64.9764 100.318 63.391 99.5248L55.8789 95.763C52.7081 94.1775 49.2117 93.352 45.6667 93.352C42.1216 93.352 38.6252 94.1775 35.4545 95.763L28.2049 99.3935L13.0321 72.844C12.5084 71.9274 12.1945 70.9061 12.1132 69.8535C12.0319 68.801 12.1852 67.7435 12.562 66.7574C12.9387 65.7712 13.5296 64.8809 14.292 64.1508C15.0544 63.4206 15.9694 62.8686 16.9709 62.5348L28.5417 58.676V39.0849C28.5411 36.3832 29.4987 33.7689 31.2442 31.7067C32.9897 29.6445 35.4099 28.2682 38.0746 27.8224L57.0833 24.66V17.125C57.0833 15.611 57.6847 14.1591 58.7553 13.0886C59.8258 12.0181 61.2777 11.4167 62.7917 11.4167H74.2083ZM68.5 34.3299L39.9583 39.0849V54.8742L64.8866 46.5629C67.2302 45.7816 69.764 45.7816 72.1077 46.5629L97.0417 54.8742V39.0849L68.5 34.3299Z" fill="black"/>
</svg>
